<?xml version="1.0" encoding="utf-8" standalone="yes"?>
<!DOCTYPE svg PUBLIC "-//W3C//DTD SVG 1.1//EN" "http://www.w3.org/Graphics/SVG/1.1/DTD/svg11.dtd">
<svg xmlns="http://www.w3.org/2000/svg" xmlns:xlink="http://www.w3.org/1999/xlink" xmlns:dc="http://purl.org/dc/elements/1.1/" xmlns:cc="http://web.resource.org/cc/" xmlns:rdf="http://www.w3.org/1999/02/22-rdf-syntax-ns#" xmlns:sodipodi="http://sodipodi.sourceforge.net/DTD/sodipodi-0.dtd" xmlns:inkscape="http://www.inkscape.org/namespaces/inkscape" version="1.1" baseProfile="full" width="112px" height="750px" viewBox="0 0 112 750" preserveAspectRatio="xMinYMin meet" id="svg_document" style="zoom: 1;">
    <rect stroke="#000000" x="0px" height="750px" y="0px" id="rect1" stroke-width="1px" width="112px" fill="#ffffff" transform=""></rect>
  
	<line stroke="black" y1="80.7px" id="40" x1="44.800000000000004px" stroke-width="4px" y2="80.7px" x2="112px" transform=""></line>
	<text stroke="none" style="outline-style:none;" id="text40" stroke-width="1px" x="11px" text-rendering="geometricPrecision" font-family="Helvetica" fill="#000000" font-size="20px" y="87.7px" transform="" text-anchor="start">40</text>
  
	<line stroke="black" y1="144.9px" id="50" x1="44.800000000000004px" stroke-width="4px" y2="144.9px" x2="112px" transform=""></line>
	<text stroke="none" style="outline-style:none;" id="text50" stroke-width="1px" x="11px" text-rendering="geometricPrecision" font-family="Helvetica" fill="#000000" font-size="20px" y="151.9px" transform="" text-anchor="start">50</text>
  
	<line stroke="black" y1="212.39999999999998px" id="60" x1="44.800000000000004px" stroke-width="4px" y2="212.39999999999998px" x2="112px" transform=""></line>
	<text stroke="none" style="outline-style:none;" id="text60" stroke-width="1px" x="11px" text-rendering="geometricPrecision" font-family="Helvetica" fill="#000000" font-size="20px" y="219.39999999999998px" transform="" text-anchor="start">60</text>
  
	<line stroke="black" y1="281.7px" id="70" x1="44.800000000000004px" stroke-width="4px" y2="281.7px" x2="112px" transform=""></line>
	<text stroke="none" style="outline-style:none;" id="text70" stroke-width="1px" x="11px" text-rendering="geometricPrecision" font-family="Helvetica" fill="#000000" font-size="20px" y="288.7px" transform="" text-anchor="start">70</text>
  
	<line stroke="black" y1="353.4px" id="80" x1="44.800000000000004px" stroke-width="4px" y2="353.4px" x2="112px" transform=""></line>
	<text stroke="none" style="outline-style:none;" id="text80" stroke-width="1px" x="11px" text-rendering="geometricPrecision" font-family="Helvetica" fill="#000000" font-size="20px" y="360.4px" transform="" text-anchor="start">80</text>
  
	<line stroke="black" y1="426.6px" id="90" x1="44.800000000000004px" stroke-width="4px" y2="426.6px" x2="112px" transform=""></line>
	<text stroke="none" style="outline-style:none;" id="text90" stroke-width="1px" x="11px" text-rendering="geometricPrecision" font-family="Helvetica" fill="#000000" font-size="20px" y="433.6px" transform="" text-anchor="start">90</text>
  
	<line stroke="black" y1="501.6px" id="100" x1="44.800000000000004px" stroke-width="4px" y2="501.6px" x2="112px" transform=""></line>
	<text stroke="none" style="outline-style:none;" id="text100" stroke-width="1px" x="11px" text-rendering="geometricPrecision" font-family="Helvetica" fill="#000000" font-size="20px" y="508.6px" transform="" text-anchor="start">100</text>
  
	<line stroke="black" y1="578.1px" id="110" x1="44.800000000000004px" stroke-width="4px" y2="578.1px" x2="112px" transform=""></line>
	<text stroke="none" style="outline-style:none;" id="text110" stroke-width="1px" x="11px" text-rendering="geometricPrecision" font-family="Helvetica" fill="#000000" font-size="20px" y="585.1px" transform="" text-anchor="start">110</text>
  
	<line stroke="black" y1="656.4000000000001px" id="120" x1="44.800000000000004px" stroke-width="4px" y2="656.4000000000001px" x2="112px" transform=""></line>
	<text stroke="none" style="outline-style:none;" id="text120" stroke-width="1px" x="11px" text-rendering="geometricPrecision" font-family="Helvetica" fill="#000000" font-size="20px" y="663.4000000000001px" transform="" text-anchor="start">120</text>
  
	<line stroke="black" y1="735.9000000000001px" id="130" x1="44.800000000000004px" stroke-width="4px" y2="735.9000000000001px" x2="112px" transform=""></line>
	<text stroke="none" style="outline-style:none;" id="text130" stroke-width="1px" x="11px" text-rendering="geometricPrecision" font-family="Helvetica" fill="#000000" font-size="20px" y="742.9000000000001px" transform="" text-anchor="start">130</text>
  
  
	<line stroke="black" y1="87.0px" id="41" x1="67.2px" stroke-width="3px" y2="87.0px" x2="112px" transform=""></line>
  
	<line stroke="black" y1="93.30000000000001px" id="42" x1="67.2px" stroke-width="3px" y2="93.30000000000001px" x2="112px" transform=""></line>
  
	<line stroke="black" y1="99.6px" id="43" x1="67.2px" stroke-width="3px" y2="99.6px" x2="112px" transform=""></line>
  
	<line stroke="black" y1="105.9px" id="44" x1="67.2px" stroke-width="3px" y2="105.9px" x2="112px" transform=""></line>
  
	<line stroke="black" y1="118.80000000000001px" id="46" x1="67.2px" stroke-width="3px" y2="118.80000000000001px" x2="112px" transform=""></line>
  
	<line stroke="black" y1="125.4px" id="47" x1="67.2px" stroke-width="3px" y2="125.4px" x2="112px" transform=""></line>
  
	<line stroke="black" y1="132.0px" id="48" x1="67.2px" stroke-width="3px" y2="132.0px" x2="112px" transform=""></line>
  
	<line stroke="black" y1="138.3px" id="49" x1="67.2px" stroke-width="3px" y2="138.3px" x2="112px" transform=""></line>
  
	<line stroke="black" y1="151.5px" id="51" x1="67.2px" stroke-width="3px" y2="151.5px" x2="112px" transform=""></line>
  
	<line stroke="black" y1="158.4px" id="52" x1="67.2px" stroke-width="3px" y2="158.4px" x2="112px" transform=""></line>
  
	<line stroke="black" y1="165.0px" id="53" x1="67.2px" stroke-width="3px" y2="165.0px" x2="112px" transform=""></line>
  
	<line stroke="black" y1="171.6px" id="54" x1="67.2px" stroke-width="3px" y2="171.6px" x2="112px" transform=""></line>
  
	<line stroke="black" y1="185.1px" id="56" x1="67.2px" stroke-width="3px" y2="185.1px" x2="112px" transform=""></line>
  
	<line stroke="black" y1="191.7px" id="57" x1="67.2px" stroke-width="3px" y2="191.7px" x2="112px" transform=""></line>
  
	<line stroke="black" y1="198.60000000000002px" id="58" x1="67.2px" stroke-width="3px" y2="198.60000000000002px" x2="112px" transform=""></line>
  
	<line stroke="black" y1="205.5px" id="59" x1="67.2px" stroke-width="3px" y2="205.5px" x2="112px" transform=""></line>
  
	<line stroke="black" y1="219.3px" id="61" x1="67.2px" stroke-width="3px" y2="219.3px" x2="112px" transform=""></line>
  
	<line stroke="black" y1="225.89999999999998px" id="62" x1="67.2px" stroke-width="3px" y2="225.89999999999998px" x2="112px" transform=""></line>
  
	<line stroke="black" y1="232.8px" id="63" x1="67.2px" stroke-width="3px" y2="232.8px" x2="112px" transform=""></line>
  
	<line stroke="black" y1="240.0px" id="64" x1="67.2px" stroke-width="3px" y2="240.0px" x2="112px" transform=""></line>
  
	<line stroke="black" y1="253.8px" id="66" x1="67.2px" stroke-width="3px" y2="253.8px" x2="112px" transform=""></line>
  
	<line stroke="black" y1="260.7px" id="67" x1="67.2px" stroke-width="3px" y2="260.7px" x2="112px" transform=""></line>
  
	<line stroke="black" y1="267.9px" id="68" x1="67.2px" stroke-width="3px" y2="267.9px" x2="112px" transform=""></line>
  
	<line stroke="black" y1="274.8px" id="69" x1="67.2px" stroke-width="3px" y2="274.8px" x2="112px" transform=""></line>
  
	<line stroke="black" y1="288.9px" id="71" x1="67.2px" stroke-width="3px" y2="288.9px" x2="112px" transform=""></line>
  
	<line stroke="black" y1="296.09999999999997px" id="72" x1="67.2px" stroke-width="3px" y2="296.09999999999997px" x2="112px" transform=""></line>
  
	<line stroke="black" y1="303.0px" id="73" x1="67.2px" stroke-width="3px" y2="303.0px" x2="112px" transform=""></line>
  
	<line stroke="black" y1="310.2px" id="74" x1="67.2px" stroke-width="3px" y2="310.2px" x2="112px" transform=""></line>
  
	<line stroke="black" y1="324.59999999999997px" id="76" x1="67.2px" stroke-width="3px" y2="324.59999999999997px" x2="112px" transform=""></line>
  
	<line stroke="black" y1="331.8px" id="77" x1="67.2px" stroke-width="3px" y2="331.8px" x2="112px" transform=""></line>
  
	<line stroke="black" y1="339.0px" id="78" x1="67.2px" stroke-width="3px" y2="339.0px" x2="112px" transform=""></line>
  
	<line stroke="black" y1="346.2px" id="79" x1="67.2px" stroke-width="3px" y2="346.2px" x2="112px" transform=""></line>
  
	<line stroke="black" y1="360.6px" id="81" x1="67.2px" stroke-width="3px" y2="360.6px" x2="112px" transform=""></line>
  
	<line stroke="black" y1="367.79999999999995px" id="82" x1="67.2px" stroke-width="3px" y2="367.79999999999995px" x2="112px" transform=""></line>
  
	<line stroke="black" y1="375.3px" id="83" x1="67.2px" stroke-width="3px" y2="375.3px" x2="112px" transform=""></line>
  
	<line stroke="black" y1="382.5px" id="84" x1="67.2px" stroke-width="3px" y2="382.5px" x2="112px" transform=""></line>
  
	<line stroke="black" y1="397.2px" id="86" x1="67.2px" stroke-width="3px" y2="397.2px" x2="112px" transform=""></line>
  
	<line stroke="black" y1="404.4px" id="87" x1="67.2px" stroke-width="3px" y2="404.4px" x2="112px" transform=""></line>
  
	<line stroke="black" y1="411.90000000000003px" id="88" x1="67.2px" stroke-width="3px" y2="411.90000000000003px" x2="112px" transform=""></line>
  
	<line stroke="black" y1="419.09999999999997px" id="89" x1="67.2px" stroke-width="3px" y2="419.09999999999997px" x2="112px" transform=""></line>
  
	<line stroke="black" y1="434.09999999999997px" id="91" x1="67.2px" stroke-width="3px" y2="434.09999999999997px" x2="112px" transform=""></line>
  
	<line stroke="black" y1="441.6px" id="92" x1="67.2px" stroke-width="3px" y2="441.6px" x2="112px" transform=""></line>
  
	<line stroke="black" y1="449.09999999999997px" id="93" x1="67.2px" stroke-width="3px" y2="449.09999999999997px" x2="112px" transform=""></line>
  
	<line stroke="black" y1="456.3px" id="94" x1="67.2px" stroke-width="3px" y2="456.3px" x2="112px" transform=""></line>
  
	<line stroke="black" y1="471.3px" id="96" x1="67.2px" stroke-width="3px" y2="471.3px" x2="112px" transform=""></line>
  
	<line stroke="black" y1="478.79999999999995px" id="97" x1="67.2px" stroke-width="3px" y2="478.79999999999995px" x2="112px" transform=""></line>
  
	<line stroke="black" y1="486.59999999999997px" id="98" x1="67.2px" stroke-width="3px" y2="486.59999999999997px" x2="112px" transform=""></line>
  
	<line stroke="black" y1="494.09999999999997px" id="99" x1="67.2px" stroke-width="3px" y2="494.09999999999997px" x2="112px" transform=""></line>
  
	<line stroke="black" y1="509.09999999999997px" id="101" x1="67.2px" stroke-width="3px" y2="509.09999999999997px" x2="112px" transform=""></line>
  
	<line stroke="black" y1="516.9px" id="102" x1="67.2px" stroke-width="3px" y2="516.9px" x2="112px" transform=""></line>
  
	<line stroke="black" y1="524.4000000000001px" id="103" x1="67.2px" stroke-width="3px" y2="524.4000000000001px" x2="112px" transform=""></line>
  
	<line stroke="black" y1="531.9px" id="104" x1="67.2px" stroke-width="3px" y2="531.9px" x2="112px" transform=""></line>
  
	<line stroke="black" y1="547.2px" id="106" x1="67.2px" stroke-width="3px" y2="547.2px" x2="112px" transform=""></line>
  
	<line stroke="black" y1="555.0px" id="107" x1="67.2px" stroke-width="3px" y2="555.0px" x2="112px" transform=""></line>
  
	<line stroke="black" y1="562.8000000000001px" id="108" x1="67.2px" stroke-width="3px" y2="562.8000000000001px" x2="112px" transform=""></line>
  
	<line stroke="black" y1="570.3px" id="109" x1="67.2px" stroke-width="3px" y2="570.3px" x2="112px" transform=""></line>
  
	<line stroke="black" y1="585.9px" id="111" x1="67.2px" stroke-width="3px" y2="585.9px" x2="112px" transform=""></line>
  
	<line stroke="black" y1="593.7px" id="112" x1="67.2px" stroke-width="3px" y2="593.7px" x2="112px" transform=""></line>
  
	<line stroke="black" y1="601.5px" id="113" x1="67.2px" stroke-width="3px" y2="601.5px" x2="112px" transform=""></line>
  
	<line stroke="black" y1="609.3000000000001px" id="114" x1="67.2px" stroke-width="3px" y2="609.3000000000001px" x2="112px" transform=""></line>
  
	<line stroke="black" y1="624.9000000000001px" id="116" x1="67.2px" stroke-width="3px" y2="624.9000000000001px" x2="112px" transform=""></line>
  
	<line stroke="black" y1="632.7px" id="117" x1="67.2px" stroke-width="3px" y2="632.7px" x2="112px" transform=""></line>
  
	<line stroke="black" y1="640.5000000000001px" id="118" x1="67.2px" stroke-width="3px" y2="640.5000000000001px" x2="112px" transform=""></line>
  
	<line stroke="black" y1="648.3000000000001px" id="119" x1="67.2px" stroke-width="3px" y2="648.3000000000001px" x2="112px" transform=""></line>
  
	<line stroke="black" y1="664.2px" id="121" x1="67.2px" stroke-width="3px" y2="664.2px" x2="112px" transform=""></line>
  
	<line stroke="black" y1="672.0000000000001px" id="122" x1="67.2px" stroke-width="3px" y2="672.0000000000001px" x2="112px" transform=""></line>
  
	<line stroke="black" y1="680.1px" id="123" x1="67.2px" stroke-width="3px" y2="680.1px" x2="112px" transform=""></line>
  
	<line stroke="black" y1="687.9000000000001px" id="124" x1="67.2px" stroke-width="3px" y2="687.9000000000001px" x2="112px" transform=""></line>
  
	<line stroke="black" y1="703.8000000000001px" id="126" x1="67.2px" stroke-width="3px" y2="703.8000000000001px" x2="112px" transform=""></line>
  
	<line stroke="black" y1="711.9000000000001px" id="127" x1="67.2px" stroke-width="3px" y2="711.9000000000001px" x2="112px" transform=""></line>
  
	<line stroke="black" y1="720.0px" id="128" x1="67.2px" stroke-width="3px" y2="720.0px" x2="112px" transform=""></line>
  
	<line stroke="black" y1="727.8000000000001px" id="129" x1="67.2px" stroke-width="3px" y2="727.8000000000001px" x2="112px" transform=""></line>
  
	<line stroke="black" y1="744.0px" id="131" x1="67.2px" stroke-width="3px" y2="744.0px" x2="112px" transform=""></line>
  
  
	<line stroke="black" y1="112.5px" id="45" x1="56.0px" stroke-width="3px" y2="112.5px" x2="112px" transform=""></line>
  
	<line stroke="black" y1="178.2px" id="55" x1="56.0px" stroke-width="3px" y2="178.2px" x2="112px" transform=""></line>
  
	<line stroke="black" y1="246.90000000000003px" id="65" x1="56.0px" stroke-width="3px" y2="246.90000000000003px" x2="112px" transform=""></line>
  
	<line stroke="black" y1="317.40000000000003px" id="75" x1="56.0px" stroke-width="3px" y2="317.40000000000003px" x2="112px" transform=""></line>
  
	<line stroke="black" y1="389.7px" id="85" x1="56.0px" stroke-width="3px" y2="389.7px" x2="112px" transform=""></line>
  
	<line stroke="black" y1="463.79999999999995px" id="95" x1="56.0px" stroke-width="3px" y2="463.79999999999995px" x2="112px" transform=""></line>
  
	<line stroke="black" y1="539.7px" id="105" x1="56.0px" stroke-width="3px" y2="539.7px" x2="112px" transform=""></line>
  
	<line stroke="black" y1="617.1px" id="115" x1="56.0px" stroke-width="3px" y2="617.1px" x2="112px" transform=""></line>
  
	<line stroke="black" y1="696.0000000000001px" id="125" x1="56.0px" stroke-width="3px" y2="696.0000000000001px" x2="112px" transform=""></line>
  
</svg>